<svg xmlns="http://www.w3.org/2000/svg" xmlns:xlink="http://www.w3.org/1999/xlink" version="1.1" x="0px" y="0px" viewBox="0 0 100 100" enable-background="new 0 0 100 100" xml:space="preserve"><symbol viewBox="-9.858 -9.858 19.716 19.716"><path fill="#000000" stroke="#592F37" stroke-width="2.5699" stroke-miterlimit="10" d="M8.573,0c0-4.735-3.838-8.573-8.573-8.573   S-8.573-4.735-8.573,0c0,4.735,3.838,8.573,8.573,8.573S8.573,4.735,8.573,0z"></path><path fill="#000000" stroke="#592F37" stroke-width="2.5699" stroke-miterlimit="10" d="M2.858,0c0-1.578-1.279-2.858-2.858-2.858   c-1.578,0-2.858,1.279-2.858,2.858c0,1.578,1.279,2.858,2.858,2.858C1.578,2.858,2.858,1.578,2.858,0z"></path></symbol><symbol viewBox="-5.525 -16.49 11.051 32.981"><path fill="#000000" stroke="#592F37" stroke-width="2" stroke-miterlimit="10" d="M4.526-15.49h-9.051v30.981h1.559   c4.138,0,7.492-3.354,7.492-7.492V-15.49z"></path></symbol><g display="none"><rect x="-1082.374" y="-413.377" display="inline" fill="#000000" width="1328.934" height="1233.377"></rect></g><g><path d="M86.072,5h-5.744l-0.583,0.426c-7.262,5.314-18.104,8.361-29.745,8.361S27.518,10.74,20.254,5.426L19.672,5h-5.744v44.963   C13.928,74.796,34.132,95,58.965,95h27.107V5z M81.652,89.285C72.56,85.776,65.097,79.16,60.521,70.613h-4.941   c3.993,8.482,10.476,15.415,18.528,19.967H58.965c-22.397,0-40.617-18.221-40.617-40.617V9.494   c7.983,5.546,19.457,8.713,31.653,8.713c12.196,0,23.67-3.167,31.652-8.713V89.285z"></path><path d="M44.093,40.653l5.908,10.093l5.907-10.093l-5.907-5.572L44.093,40.653z M50.001,45.487l-2.548-4.351l2.548-2.402   l2.547,2.402L50.001,45.487z"></path><path d="M44.404,29.586c-2.373-6.779-9.818-10.366-16.597-7.993c-6.779,2.372-10.364,9.817-7.994,16.597   c1.876,5.361,6.924,8.725,12.308,8.725c1.423,0,2.871-0.236,4.289-0.732C43.19,43.81,46.775,36.365,44.404,29.586z M40.858,38.101   c-1.125,2.337-3.094,4.096-5.542,4.953c-5.054,1.769-10.605-0.905-12.373-5.958c-1.767-5.055,0.905-10.605,5.958-12.373   c1.057-0.37,2.136-0.545,3.198-0.545c4.013,0,7.777,2.508,9.175,6.504C42.131,33.129,41.983,35.764,40.858,38.101z"></path><path d="M34.349,29.235c-0.71-0.341-1.472-0.514-2.237-0.514c-0.574,0-1.15,0.097-1.709,0.292c-1.301,0.455-2.348,1.39-2.947,2.633   c-0.598,1.242-0.677,2.644-0.221,3.946c0.455,1.302,1.391,2.349,2.633,2.947c1.243,0.598,2.643,0.677,3.946,0.221   c1.301-0.455,2.348-1.39,2.947-2.633c0.598-1.242,0.677-2.644,0.221-3.945C36.526,30.88,35.591,29.834,34.349,29.235z"></path><path d="M67.904,46.914c1.423,0,2.871-0.236,4.289-0.732c6.78-2.373,10.365-9.818,7.993-16.597   c-2.373-6.779-9.817-10.366-16.597-7.993c-6.779,2.372-10.364,9.817-7.994,16.597C57.473,43.551,62.521,46.914,67.904,46.914z    M64.684,24.722c1.057-0.37,2.137-0.545,3.198-0.545c4.013,0,7.777,2.508,9.175,6.504c0.857,2.448,0.709,5.083-0.417,7.42   c-1.125,2.337-3.094,4.096-5.542,4.953c-5.053,1.769-10.605-0.905-12.373-5.958C56.958,32.04,59.631,26.49,64.684,24.722z"></path><path d="M65.651,38.54c1.243,0.598,2.642,0.677,3.946,0.221c1.301-0.455,2.348-1.39,2.947-2.633   c0.598-1.242,0.677-2.644,0.221-3.945c-0.455-1.302-1.391-2.349-2.633-2.947c-0.71-0.341-1.472-0.514-2.237-0.514   c-0.574,0-1.15,0.097-1.709,0.292c-1.301,0.455-2.348,1.39-2.947,2.633c-0.598,1.242-0.677,2.644-0.221,3.946   C63.474,36.895,64.409,37.941,65.651,38.54z"></path></g></svg>